<svg width="25" height="20" viewBox="0 0 25 20" fill="none" xmlns="http://www.w3.org/2000/svg">
<g clip-path="url(#clip0)">
<path d="M6.11914 3.17091V0.149384H24V14H17.4178" stroke="white" stroke-width="1.5"/>
<path fill-rule="evenodd" clip-rule="evenodd" d="M11.6733 8.30922C13.4857 10.1215 14.3858 12.4916 14.3643 14.8283L12.8473 14.8064C12.876 12.8572 12.1303 10.8765 10.6182 9.36439C9.1158 7.86202 7.15082 7.11622 5.21385 7.13478L5.18973 5.61803C7.51486 5.60591 9.87018 6.50606 11.6733 8.30922ZM11.33 14.7845C11.3661 13.2229 10.7749 11.6314 9.56301 10.4196C8.36143 9.21797 6.78674 8.62659 5.23797 8.65175L5.2621 10.1692C6.42255 10.1371 7.60705 10.5739 8.50784 11.4747C9.41953 12.3864 9.85595 13.5887 9.81204 14.7626L11.33 14.7845ZM8.2922 14.7406C8.34524 13.9549 8.06418 13.1414 7.45268 12.5299C6.85266 11.9299 6.0581 11.648 5.28624 11.6877L5.33411 14.6979L8.2922 14.7406Z" fill="white"/>
</g>
<defs>
<clipPath id="clip0">
<rect width="25" height="20" fill="white"/>
</clipPath>
</defs>
</svg>
